<svg width="170" height="58" viewBox="0 0 170 58" fill="none" xmlns="http://www.w3.org/2000/svg">
<path d="M95.988 17.921L103.7 15.054L95.988 12.02V8L109.188 13.328V16.608L95.988 21.941V17.921ZM23.087 43.344C20.3 43.344 18 41.95 18 38.836V38.67C18 34.897 21.28 33.583 25.3 33.583H27.187V32.843C27.187 31.283 26.533 30.383 24.893 30.383C24.6107 30.3474 24.324 30.3714 24.0515 30.4533C23.779 30.5351 23.5266 30.6732 23.3107 30.8584C23.0947 31.0437 22.9199 31.2721 22.7975 31.529C22.6751 31.7859 22.6078 32.0656 22.6 32.35H18.493C18.82 28.9 21.527 27.264 25.134 27.264C28.822 27.264 31.528 28.824 31.528 32.678V43.012H27.348V41.205C26.8693 41.8854 26.2298 42.4368 25.4863 42.81C24.7428 43.1832 23.9186 43.3666 23.087 43.344ZM27.187 37.85V36.376H25.467C23.334 36.376 22.267 36.95 22.267 38.343V38.509C22.267 39.576 22.921 40.315 24.4 40.315C24.7487 40.3553 25.1019 40.3217 25.4367 40.2165C25.7715 40.1113 26.0804 39.9367 26.3433 39.7042C26.6062 39.4716 26.8172 39.1864 26.9626 38.8669C27.1079 38.5475 27.1844 38.201 27.187 37.85V37.85ZM41.287 43.344C37.02 43.344 33.906 40.718 33.906 35.47V35.229C33.906 29.976 37.186 27.189 41.287 27.189C44.814 27.189 47.681 28.995 48.014 33.01H43.914C43.667 31.536 42.847 30.55 41.373 30.55C39.567 30.55 38.259 32.024 38.259 35.058V35.551C38.259 38.665 39.406 40.059 41.373 40.059C42.1058 40.0388 42.803 39.7387 43.3214 39.2204C43.8397 38.702 44.1398 38.0048 44.16 37.272H48.1C47.85 40.8 45.47 43.344 41.289 43.344H41.287ZM57.362 43.344C53.095 43.344 49.981 40.718 49.981 35.47V35.229C49.981 29.982 53.261 27.194 57.362 27.194C60.889 27.194 63.756 29 64.089 33.015H59.989C59.742 31.541 58.922 30.555 57.448 30.555C55.642 30.555 54.334 32.029 54.334 35.063V35.556C54.334 38.67 55.481 40.064 57.448 40.064C58.1808 40.0438 58.878 39.7437 59.3964 39.2254C59.9147 38.707 60.2148 38.0098 60.235 37.277H64.169C63.924 40.8 61.545 43.344 57.364 43.344H57.362ZM73.517 43.344C69.09 43.344 66.056 40.718 66.056 35.556V35.229C66.056 30.062 69.256 27.194 73.437 27.194C77.291 27.194 80.491 29.327 80.491 34.494V36.381H70.485C70.651 39.168 71.879 40.235 73.685 40.235C74.3159 40.2844 74.9446 40.1161 75.4665 39.7581C75.9883 39.4002 76.3718 38.8743 76.553 38.268H80.573C79.999 41.13 77.62 43.344 73.519 43.344H73.517ZM70.485 33.5H76.306C76.226 31.206 75.159 30.22 73.438 30.22C72.045 30.308 70.812 31.043 70.485 33.5ZM83.113 27.6H87.46V29.9C87.9038 29.0589 88.5808 28.3638 89.4099 27.898C90.239 27.4322 91.1848 27.2155 92.134 27.274C94.921 27.274 96.808 28.995 96.808 32.688V43.017H92.461V33.342C92.461 31.536 91.721 30.716 90.167 30.716C89.7922 30.696 89.4176 30.7578 89.0692 30.8971C88.7207 31.0365 88.4068 31.2501 88.1492 31.523C87.8916 31.7959 87.6965 32.1216 87.5775 32.4775C87.4585 32.8335 87.4184 33.211 87.46 33.584V43.012H83.113V27.6ZM104.762 22.926V27.6H107.715V30.8H104.762V38.1C104.762 39.247 105.255 39.821 106.322 39.821C106.825 39.8416 107.327 39.7575 107.796 39.574V42.935C106.997 43.1658 106.168 43.276 105.336 43.262C101.975 43.262 100.416 41.702 100.416 38.588V30.8H98.616V27.6H100.422V24.729L104.762 22.926ZM123.951 43.015H119.6V40.723C119.185 41.5499 118.539 42.2384 117.74 42.7047C116.941 43.1709 116.024 43.3948 115.1 43.349C112.313 43.349 110.26 41.628 110.26 38.021V27.6H114.6V37.441C114.6 39.247 115.34 40.067 116.814 40.067C117.187 40.0795 117.558 40.0125 117.903 39.8706C118.248 39.7286 118.559 39.5149 118.815 39.2437C119.071 38.9725 119.266 38.6499 119.388 38.2974C119.51 37.9448 119.555 37.5704 119.521 37.199V27.682H123.868V43.017L123.951 43.015ZM127.151 27.6H131.5V30.468C131.846 29.5247 132.489 28.7191 133.331 28.1721C134.174 27.625 135.172 27.366 136.174 27.434V31.7C133.221 31.7 131.5 32.6 131.5 35.146V43.1H127.153L127.151 27.6ZM144.951 43.342C140.524 43.342 137.49 40.716 137.49 35.554V35.227C137.49 30.06 140.69 27.192 144.871 27.192C148.725 27.192 151.925 29.325 151.925 34.492V36.379H141.912C142.078 39.166 143.306 40.233 145.112 40.233C145.743 40.2824 146.372 40.1141 146.893 39.7561C147.415 39.3982 147.799 38.8723 147.98 38.266H152C151.346 41.128 148.966 43.342 144.946 43.342H144.951ZM141.832 33.5H147.653C147.573 31.206 146.506 30.22 144.785 30.22C143.472 30.308 142.239 31.043 141.832 33.5Z" fill="#8989A2"/>
</svg>
