<svg width="170" height="58" viewBox="0 0 170 58" fill="none" xmlns="http://www.w3.org/2000/svg">
<path d="M88.7308 19.226C88.731 19.75 88.5758 20.2622 88.2849 20.698C87.9939 21.1337 87.5803 21.4734 87.0962 21.6741C86.6122 21.8747 86.0795 21.9273 85.5656 21.8252C85.0517 21.7231 84.5796 21.4709 84.209 21.1005C83.8385 20.7301 83.5861 20.2581 83.4838 19.7442C83.3815 19.2303 83.4339 18.6976 83.6344 18.2135C83.8348 17.7294 84.1744 17.3156 84.61 17.0245C85.0456 16.7334 85.5578 16.578 86.0818 16.578C86.4298 16.5772 86.7746 16.6451 87.0962 16.7779C87.4179 16.9107 87.7102 17.1057 87.9563 17.3517C88.2025 17.5978 88.3976 17.89 88.5305 18.2116C88.6634 18.5333 88.7315 18.878 88.7308 19.226V19.226ZM77.8108 24.564V25.216C77.3098 24.6737 76.6969 24.2469 76.0145 23.9653C75.332 23.6836 74.5964 23.5539 73.8588 23.585C71.7461 23.6257 69.7337 24.4936 68.254 26.0021C66.7743 27.5107 65.9454 29.5394 65.9454 31.6525C65.9454 33.7656 66.7743 35.7943 68.254 37.3029C69.7337 38.8114 71.7461 39.6793 73.8588 39.72C74.6007 39.756 75.3413 39.6245 76.0254 39.3353C76.7096 39.046 77.3198 38.6064 77.8108 38.049V38.741C77.809 38.8164 77.8226 38.8914 77.8507 38.9615C77.8787 39.0315 77.9207 39.0951 77.9741 39.1484C78.0275 39.2017 78.0912 39.2436 78.1613 39.2715C78.2313 39.2995 78.3064 39.3129 78.3818 39.311H81.6818V23.991H78.3818C78.2314 23.9948 78.0882 24.0563 77.9819 24.1628C77.8756 24.2693 77.8144 24.4126 77.8108 24.563V24.564ZM77.8108 34.383C77.4331 34.9037 76.9368 35.327 76.3629 35.6176C75.789 35.9082 75.1541 36.0578 74.5108 36.054C73.9154 36.0824 73.3203 35.9896 72.7618 35.7813C72.2032 35.573 71.6927 35.2535 71.2613 34.8421C70.8298 34.4308 70.4863 33.9361 70.2517 33.3881C70.017 32.8401 69.896 32.2501 69.896 31.654C69.896 31.0579 70.017 30.4679 70.2517 29.9199C70.4863 29.3719 70.8298 28.8773 71.2613 28.4659C71.6927 28.0545 72.2032 27.735 72.7618 27.5267C73.3203 27.3184 73.9154 27.2256 74.5108 27.254C75.1525 27.2591 75.7843 27.4126 76.3568 27.7025C76.9293 27.9923 77.4269 28.4108 77.8108 28.925V34.383ZM84.1268 23.993H88.0378V39.313H84.1268V23.992V23.993ZM142.555 23.585C141.817 23.5539 141.081 23.6837 140.399 23.9653C139.716 24.247 139.103 24.6737 138.602 25.216V16.616H134.691V39.311H137.991C138.141 39.3079 138.285 39.2467 138.391 39.1403C138.497 39.0338 138.558 38.8904 138.561 38.74V38.048C139.056 38.5998 139.667 39.0357 140.35 39.3245C141.033 39.6133 141.772 39.748 142.513 39.719C144.622 39.6778 146.631 38.8126 148.11 37.3084C149.589 35.8043 150.42 33.7809 150.425 31.6715C150.431 29.5621 149.61 27.5344 148.139 26.0226C146.668 24.5108 144.664 23.6351 142.555 23.583V23.585ZM141.903 36.013C141.259 36.0216 140.622 35.8741 140.047 35.5831C139.473 35.2921 138.977 34.8663 138.603 34.342V28.882C139 28.3817 139.5 27.9733 140.07 27.6849C140.639 27.3964 141.265 27.2348 141.903 27.211C143.07 27.211 144.189 27.6746 145.014 28.4997C145.839 29.3249 146.303 30.444 146.303 31.611C146.303 32.7779 145.839 33.8971 145.014 34.7223C144.189 35.5474 143.07 36.011 141.903 36.011V36.013ZM132.654 30.228V39.355H128.742V30.676C128.742 28.15 127.927 27.131 125.728 27.131C125.122 27.1489 124.527 27.2921 123.98 27.5517C123.433 27.8112 122.946 28.1815 122.549 28.639V39.314H118.639V23.993H121.739C121.889 23.9961 122.033 24.0572 122.139 24.1636C122.246 24.2701 122.307 24.4135 122.31 24.564V25.216C122.854 24.6744 123.504 24.2502 124.218 23.9696C124.933 23.6891 125.697 23.5582 126.465 23.585C128.023 23.5317 129.546 24.0539 130.744 25.052C132.129 26.193 132.659 27.659 132.659 30.227L132.654 30.228ZM109.143 23.586C108.405 23.555 107.67 23.6848 106.987 23.9665C106.305 24.2481 105.692 24.6748 105.191 25.217V16.617H101.28V39.312H104.58C104.73 39.3089 104.874 39.2478 104.98 39.1414C105.087 39.0349 105.148 38.8915 105.151 38.741V38.049C105.646 38.6008 106.257 39.0367 106.94 39.3255C107.623 39.6143 108.362 39.749 109.103 39.72C111.212 39.6787 113.221 38.8133 114.7 37.3091C116.178 35.8049 117.009 33.7814 117.015 31.6721C117.02 29.5627 116.199 27.535 114.728 26.0233C113.257 24.5116 111.253 23.636 109.144 23.584L109.143 23.586ZM108.491 36.014C107.847 36.0227 107.21 35.8752 106.635 35.5842C106.061 35.2932 105.565 34.8673 105.191 34.343V28.883C105.588 28.3827 106.088 27.9743 106.658 27.6859C107.227 27.3974 107.853 27.2358 108.491 27.212C109.086 27.1836 109.681 27.2764 110.24 27.4847C110.798 27.693 111.309 28.0125 111.74 28.4239C112.172 28.8353 112.515 29.3299 112.75 29.8779C112.985 30.4259 113.106 31.0159 113.106 31.612C113.106 32.2081 112.985 32.7981 112.75 33.3461C112.515 33.8941 112.172 34.3888 111.74 34.8001C111.309 35.2115 110.798 35.531 110.24 35.7393C109.681 35.9476 109.086 36.0404 108.491 36.012V36.014ZM97.8978 23.586C98.502 23.5652 99.106 23.6326 99.6908 23.786V27.412C99.6908 27.412 96.4308 26.312 94.3908 28.635V39.351H90.4788V23.992H93.7788C93.9292 23.9951 94.0726 24.0562 94.1788 24.1627C94.2851 24.2691 94.346 24.4126 94.3488 24.563V25.215C95.2844 24.2443 96.5518 23.6622 97.8978 23.585V23.586ZM57.2758 37.929C57.0758 37.44 56.8688 36.911 56.6648 36.462C56.3388 35.729 56.0128 35.036 55.7278 34.384L55.6868 34.343C52.8748 28.231 49.8608 22.043 46.6868 15.927L46.5648 15.682C46.2315 15.048 45.9058 14.4097 45.5878 13.767C45.186 12.9664 44.6938 12.2145 44.1208 11.526C43.5057 10.7397 42.7197 10.1037 41.8225 9.66605C40.9252 9.22841 39.9401 9.00065 38.9418 9C37.947 9.00367 36.965 9.22435 36.0643 9.64664C35.1636 10.0689 34.3659 10.6827 33.7268 11.445C33.1672 12.1433 32.6759 12.8937 32.2598 13.686C31.9418 14.328 31.6162 14.9663 31.2828 15.601L31.1598 15.846C28.0228 21.957 24.9668 28.146 22.1598 34.262L22.1188 34.343C21.8338 34.996 21.5078 35.688 21.1818 36.421C20.9785 36.8697 20.7748 37.3587 20.5708 37.888C20.0498 39.2925 19.8819 40.8034 20.0818 42.288C20.3002 43.7792 20.904 45.1875 21.8335 46.3738C22.7631 47.5601 23.9862 48.4833 25.3818 49.052C26.4263 49.4906 27.549 49.7124 28.6818 49.704C29.0364 49.6971 29.3904 49.6698 29.7418 49.622C31.1795 49.4394 32.5656 48.9683 33.8168 48.237C35.7142 47.1039 37.4172 45.6733 38.8608 44C40.3159 45.6647 42.0202 47.094 43.9128 48.237C45.1638 48.9681 46.5494 49.4392 47.9868 49.622C48.3382 49.67 48.6922 49.6973 49.0468 49.704C50.18 49.7165 51.3035 49.4945 52.3468 49.052C53.7433 48.4846 54.9672 47.5618 55.8969 46.3752C56.8266 45.1887 57.4298 43.7797 57.6468 42.288C57.9467 40.8298 57.8185 39.316 57.2778 37.929H57.2758ZM38.9008 40.048C36.9969 37.8496 35.5929 35.264 34.7858 32.47C34.5871 31.6567 34.5457 30.8129 34.6638 29.984C34.7438 29.3701 34.9672 28.7836 35.3158 28.272C35.7246 27.706 36.2642 27.2473 36.8886 26.9351C37.5131 26.6229 38.2038 26.4664 38.9018 26.479C39.602 26.4528 40.2975 26.6033 40.9242 26.9166C41.551 27.23 42.0887 27.6961 42.4878 28.272C42.8358 28.7839 43.0591 29.3703 43.1398 29.984C43.2582 30.8129 43.2168 31.6567 43.0178 32.47C42.1912 35.2558 40.7885 37.8368 38.9008 40.046V40.048ZM55.1568 41.963C55.0103 43.0127 54.5908 44.0055 53.9402 44.8422C53.2897 45.6789 52.431 46.3302 51.4498 46.731C50.4686 47.1306 49.4009 47.2707 48.3498 47.138C47.2546 47.0019 46.1993 46.6414 45.2498 46.079C43.4991 45.0195 41.9306 43.6847 40.6048 42.126C42.9054 39.5359 44.5907 36.4592 45.5348 33.126C45.7989 31.9913 45.8666 30.8196 45.7348 29.662C45.5841 28.6666 45.2078 27.7188 44.6348 26.891C43.9862 25.9763 43.1235 25.2344 42.1221 24.7301C41.1206 24.2258 40.0108 23.9744 38.8898 23.998C37.7703 23.9834 36.6637 24.2387 35.6637 24.7423C34.6637 25.2458 33.7997 25.9829 33.1448 26.891C32.572 27.7189 32.1957 28.6666 32.0448 29.662C31.8716 30.8181 31.9397 31.9975 32.2448 33.126C32.8558 35.815 34.5258 38.871 37.1748 42.171C35.8585 43.7392 34.2884 45.0754 32.5298 46.124C31.5806 46.687 30.5251 47.0476 29.4298 47.183C28.3788 47.3008 27.3148 47.1611 26.3298 46.776C25.3516 46.3716 24.4964 45.7178 23.8496 44.8798C23.2029 44.0417 22.7871 43.0488 22.6438 42C22.5093 40.9266 22.6352 39.8365 23.0108 38.822C23.1328 38.414 23.3368 38.007 23.5408 37.522C23.8258 36.87 24.1518 36.177 24.4778 35.484L24.5188 35.403C27.3298 29.332 30.3448 23.139 33.4818 17.109L33.6038 16.864C33.9298 16.253 34.2558 15.601 34.5818 14.99C34.8895 14.3491 35.2726 13.7472 35.7228 13.197C36.1244 12.7245 36.6239 12.345 37.1868 12.0848C37.7496 11.8245 38.3622 11.6897 38.9823 11.6897C39.6024 11.6897 40.2151 11.8245 40.7779 12.0848C41.3407 12.345 41.8402 12.7245 42.2418 13.197C42.6915 13.7476 43.0745 14.3494 43.3828 14.99C43.7088 15.601 44.0348 16.253 44.3608 16.864L44.4838 17.109C47.5731 23.1637 50.5475 29.2753 53.4068 35.444V35.485C53.7328 36.138 54.0178 36.871 54.3438 37.523C54.5438 38.011 54.7508 38.423 54.8738 38.823C55.2096 39.8327 55.3068 40.9064 55.1578 41.96L55.1568 41.963Z" fill="#8989A2"/>
</svg>
