<svg width="100" height="30" viewBox="0 0 100 30" fill="none" xmlns="http://www.w3.org/2000/svg">
<path d="M90.6229 19.7167C87.8299 19.7167 85.8611 17.7333 85.8611 15.125C85.8611 12.5167 87.8299 10.5333 90.6229 10.5333C93.4159 10.5333 95.3298 12.5167 95.3298 15.125C95.3298 17.7333 93.3884 19.7167 90.6229 19.7167ZM90.1742 22.45C92.4269 22.45 94.3408 21.65 95.5495 19.975C95.7785 21.6 97.0697 22.1917 98.6997 22.1917H100V19.6167H99.4414C98.5165 19.6167 98.2876 19.2083 98.2876 18.25V8.06668H95.3023V10.1583C94.2858 8.69168 92.372 7.80835 90.1742 7.80835C86.2549 7.80835 82.656 10.8 82.656 15.125C82.656 19.45 86.264 22.4417 90.1742 22.4417V22.45ZM74.7991 18.9167C74.7991 21.2333 76.3741 22.1917 78.2605 22.1917H81.896V19.6167H79.2495C78.1506 19.6167 77.9217 19.2333 77.9217 18.25V10.6417H81.896V8.06668H77.9217V3.32501H74.7991V18.9167ZM60.5778 22.1917H63.7004V16.1333H64.7443L70.0647 22.1917H74.0115L67.226 14.5083L72.4365 8.06668H68.9201L64.6619 13.5083H63.7004V3.32501H60.5778V22.1917ZM50.4406 7.80835C46.0726 7.80835 42.4738 10.8 42.4738 15.125C42.4738 19.45 46.0817 22.4417 50.4406 22.4417C54.7995 22.4417 58.4075 19.45 58.4075 15.125C58.4075 10.8 54.7995 7.80835 50.4406 7.80835ZM50.4406 19.7167C47.6476 19.7167 45.6788 17.7333 45.6788 15.125C45.6788 12.5167 47.6476 10.5333 50.4406 10.5333C53.2336 10.5333 55.2024 12.5167 55.2024 15.125C55.2024 17.7333 53.2336 19.7167 50.4406 19.7167Z" fill="black"/>
<path d="M18.1249 0.208333L17.4472 7.80833C17.1267 7.775 16.8062 7.75833 16.4765 7.75833C16.0645 7.75833 15.6615 7.78333 15.2678 7.84167L14.8832 4.15833C14.874 4.04167 14.9747 3.94167 15.1029 3.94167H15.7897L15.4601 0.216667C15.4509 0.1 15.5517 0 15.6707 0H17.9142C18.0424 0 18.1432 0.1 18.1249 0.216667V0.208333ZM12.4656 0.583333C12.429 0.475 12.3008 0.408333 12.1818 0.45L10.0756 1.15C9.95654 1.19167 9.9016 1.31667 9.95654 1.41667L11.669 4.81667L11.0188 5.03333C10.8997 5.075 10.8448 5.2 10.8997 5.3L12.6488 8.64167C13.2806 8.325 13.9674 8.08333 14.6909 7.93333L12.4748 0.583333H12.4656ZM7.30092 2.7L12.1451 8.91667C11.5316 9.28333 10.973 9.71667 10.4968 10.2167L7.59395 7.61667C7.50238 7.53333 7.51154 7.4 7.60311 7.325L8.13423 6.925L5.24968 4.26667C5.15811 4.18333 5.16727 4.05 5.268 3.975L6.98041 2.66667C7.08114 2.59167 7.2185 2.60833 7.29176 2.7H7.30092ZM3.23507 6.3C3.13434 6.23333 2.98782 6.26667 2.92372 6.36667L1.80653 8.13333C1.74243 8.23333 1.78822 8.35833 1.8981 8.40833L5.61597 10.0083L5.268 10.55C5.20389 10.65 5.24968 10.7833 5.36873 10.825L9.06828 12.3667C9.33384 11.7417 9.69098 11.1583 10.1305 10.6333L3.23507 6.3ZM0.497035 11.1C0.51535 10.9833 0.643552 10.9167 0.762597 10.9417L8.86682 12.8667C8.6562 13.4917 8.53716 14.15 8.51884 14.8333L4.46215 14.5333C4.33395 14.525 4.24238 14.4167 4.26985 14.3L4.38889 13.6833L0.295574 13.3333C0.167372 13.325 0.0849562 13.2167 0.103271 13.1L0.487878 11.0917L0.497035 11.1ZM0.194844 16.0833C0.0666415 16.0917 -0.0157743 16.2 0.00254035 16.3167L0.396305 18.325C0.414619 18.4417 0.542822 18.5083 0.661867 18.4833L4.63614 17.5417L4.75519 18.1583C4.7735 18.275 4.9017 18.3417 5.02075 18.3167L8.94008 17.3333C8.71115 16.7167 8.56463 16.0583 8.528 15.3833L0.185687 16.0833H0.194844ZM1.49518 21.3667C1.43108 21.2667 1.47687 21.1417 1.58676 21.0917L9.1507 17.825C9.43457 18.4417 9.81918 19.0167 10.277 19.5333L6.9621 21.6833C6.86137 21.75 6.71485 21.725 6.65075 21.625L6.30277 21.075L2.92372 23.2C2.82299 23.2667 2.67648 23.2333 2.61237 23.1333L1.48603 21.3667H1.49518ZM10.6617 19.9333L4.7735 25.3583C4.68193 25.4417 4.69108 25.575 4.79182 25.65L6.51339 26.9583C6.61412 27.0333 6.75148 27.0167 6.82474 26.925L9.20564 23.875L9.73676 24.2833C9.83749 24.3583 9.98401 24.3417 10.0573 24.2417L12.3649 21.1917C11.7422 20.8417 11.1653 20.4167 10.6708 19.9333H10.6617ZM9.49867 28.6417C9.37963 28.6 9.32469 28.475 9.37963 28.375L12.8686 21.4417C13.5096 21.7417 14.2055 21.9667 14.929 22.0917L13.9033 25.675C13.8759 25.7833 13.7385 25.85 13.6195 25.8083L12.9693 25.5917L11.8796 29.2C11.8429 29.3083 11.7147 29.375 11.5957 29.3333L9.48952 28.6333L9.49867 28.6417ZM15.5059 22.1833L14.8282 29.7833C14.8191 29.9 14.9198 30 15.0388 30H17.2824C17.4106 30 17.5113 29.9 17.493 29.7833L17.1633 26.0583H17.8501C17.9783 26.0583 18.0791 25.9583 18.0699 25.8417L17.6853 22.1583C17.2915 22.2167 16.8886 22.2417 16.4765 22.2417C16.1469 22.2417 15.8264 22.225 15.5059 22.1833ZM23.5826 1.60833C23.6376 1.5 23.5826 1.38333 23.4636 1.34167L21.3574 0.641667C21.2384 0.6 21.1101 0.666667 21.0735 0.775L19.9838 4.38333L19.3336 4.16667C19.2146 4.125 19.0864 4.19167 19.0498 4.3L18.0241 7.88333C18.7567 8.01667 19.4435 8.24167 20.0845 8.53333L23.5826 1.60833ZM28.1796 4.63333L22.2914 10.0583C21.7969 9.575 21.2292 9.15 20.5973 8.8L22.905 5.75C22.9782 5.65833 23.1248 5.63333 23.2255 5.70833L23.7566 6.11667L26.1375 3.06667C26.2108 2.975 26.3573 2.95833 26.4489 3.03333L28.1704 4.34167C28.2712 4.41667 28.2712 4.55 28.1888 4.63333H28.1796ZM31.3663 8.9C31.4854 8.85 31.522 8.725 31.4579 8.625L30.3316 6.85833C30.2675 6.75833 30.1209 6.73333 30.0202 6.79167L26.6412 8.91667L26.2932 8.375C26.2291 8.275 26.0826 8.24167 25.9818 8.31667L22.6669 10.4667C23.1248 10.9833 23.5002 11.5583 23.7932 12.175L31.3572 8.90833L31.3663 8.9ZM32.5568 11.6667L32.9414 13.675C32.9597 13.7917 32.8773 13.8917 32.7491 13.9083L24.4068 14.6167C24.3702 13.9333 24.2236 13.2833 23.9947 12.6667L27.914 11.6833C28.0331 11.65 28.1613 11.725 28.1796 11.8417L28.2986 12.4583L32.2729 11.5167C32.392 11.4917 32.5202 11.5583 32.5385 11.675L32.5568 11.6667ZM32.1813 19.0417C32.3004 19.0667 32.4286 19 32.4469 18.8833L32.8315 16.875C32.8498 16.7583 32.7674 16.6583 32.6392 16.6417L28.5459 16.2917L28.6649 15.675C28.6832 15.5583 28.6008 15.4583 28.4726 15.4417L24.4159 15.1417C24.3976 15.825 24.2786 16.4833 24.068 17.1083L32.1722 19.0333L32.1813 19.0417ZM30.0202 23.625C29.9561 23.725 29.8096 23.75 29.7089 23.6917L22.8134 19.3583C23.253 18.8333 23.6101 18.25 23.8757 17.625L27.5752 19.1667C27.6943 19.2167 27.74 19.3417 27.6759 19.4417L27.328 19.9833L31.0458 21.5833C31.1557 21.6333 31.2015 21.7583 31.1374 21.8583L30.0202 23.625ZM20.7988 21.0667L25.643 27.2833C25.7163 27.375 25.8628 27.3917 25.9544 27.3167L27.6668 26.0083C27.7675 25.9333 27.7675 25.8 27.6851 25.7167L24.8005 23.0583L25.3317 22.6583C25.4324 22.5833 25.4324 22.45 25.3408 22.3667L22.438 19.7667C21.9526 20.2667 21.4032 20.7083 20.7896 21.0667H20.7988ZM20.753 29.5333C20.634 29.575 20.5058 29.5083 20.4691 29.4L18.2531 22.05C18.9765 21.9 19.6633 21.6583 20.2951 21.3417L22.0442 24.6833C22.0991 24.7917 22.0442 24.9167 21.9251 24.95L21.275 25.1667L22.9874 28.5667C23.0423 28.675 22.9874 28.7917 22.8684 28.8333L20.7622 29.5333H20.753Z" fill="black"/>
</svg>
