<svg width="150" height="30" viewBox="0 0 150 30" fill="none" xmlns="http://www.w3.org/2000/svg">
<path d="M33.8135 6.76676H41.5741C47.1902 6.76676 48.6128 10.1264 48.6128 12.8647C48.6128 15.603 47.1584 18.9626 41.5741 18.9626H36.7861V28.5677H33.8135V6.76676ZM36.7861 9.35759V16.3718H40.7036C43.0604 16.3718 45.4173 15.8241 45.4173 12.8647C45.4173 9.90524 43.0604 9.35759 40.7036 9.35759H36.7861ZM52.4984 6.66144C53.6202 6.66217 54.5329 7.55763 54.5459 8.6704C54.559 9.78316 53.6677 10.6995 52.5462 10.7261C51.4247 10.7528 50.4902 9.87991 50.4495 8.76781C50.4323 8.21688 50.6402 7.68244 51.026 7.28581C51.4118 6.88918 51.9428 6.66402 52.4984 6.66144ZM51.1289 13.9705H53.8892V28.5677H51.1289V13.9705ZM57.0848 13.9705H59.8769V16.2243H59.9406C60.914 14.5017 62.7946 13.483 64.7817 13.6019C67.6375 13.6019 70.0899 15.2975 70.0899 19.1733V28.5677H67.3296V19.9526C67.3296 17.2038 65.7478 16.1928 63.9748 16.1928C61.6498 16.1928 59.8769 17.6672 59.8769 21.0585V28.5677H57.0848V13.9705ZM75.2071 22.2907C75.2071 24.8394 77.5958 26.5034 80.1756 26.5034C81.7939 26.4567 83.2926 25.6468 84.2098 24.3233L86.3331 25.9242C84.7914 27.9417 82.3418 29.0699 79.7934 28.9363C75.2278 28.9363 72.3433 25.7528 72.2275 21.5341L72.2238 21.2691C72.1415 19.2393 72.9072 17.2657 74.3401 15.8144C75.7729 14.363 77.746 13.5626 79.7934 13.6019C84.9742 13.6019 86.9595 17.5408 86.9595 21.3007V22.2907H75.2071ZM84.04 20.0685C83.9763 17.6356 82.6067 15.8557 79.7934 15.8557C77.3873 15.8395 75.3856 17.6867 75.2283 20.0685H84.04ZM99.6355 17.8568C98.7266 16.7908 97.3799 16.1906 95.9728 16.2243C92.9365 16.2243 91.3759 18.6572 91.3759 21.3955C91.2995 22.6907 91.7677 23.9594 92.669 24.8995C93.5704 25.8396 94.8243 26.3669 96.1321 26.356C97.5144 26.4019 98.8372 25.7966 99.6992 24.7235L101.685 26.6719C100.24 28.1889 98.2018 29.0077 96.1002 28.9152C94.0344 29.0184 92.0206 28.2515 90.5549 26.8035C89.0893 25.3556 88.3079 23.361 88.4033 21.3112C88.31 19.2535 89.0887 17.2508 90.5508 15.7883C92.013 14.3258 94.0253 13.5368 96.1002 13.6125C98.2261 13.5589 100.276 14.3962 101.748 15.9189L99.6355 17.8568ZM109.944 13.6019C114.195 13.6714 117.592 17.1343 117.545 21.352C117.499 25.5696 114.027 28.9579 109.775 28.9355C105.523 28.9123 102.089 25.487 102.088 21.2691C102.088 19.2136 102.919 17.244 104.396 15.8024C105.796 14.4367 107.663 13.6533 109.618 13.6034L109.944 13.6019ZM109.944 26.356C112.917 26.356 114.785 24.2496 114.785 21.2691C114.785 18.2886 112.917 16.1928 109.944 16.1928C106.971 16.1928 105.092 18.2991 105.092 21.2691C105.092 24.1566 106.859 26.2377 109.698 26.3511L109.944 26.356ZM120.03 13.9705H122.822V16.2243C123.799 14.5 125.683 13.4814 127.674 13.6019C130.529 13.6019 132.982 15.2975 132.982 19.1733V28.5677H130.19V19.9526C130.19 17.2038 128.608 16.1928 126.846 16.1928C124.51 16.1928 122.748 17.6672 122.748 21.0585V28.5677H120.03V13.9705ZM138.184 22.2907C138.184 24.8394 140.573 26.5034 143.152 26.5034C144.769 26.4517 146.266 25.643 147.187 24.3233L149.31 25.9242C147.767 27.9249 145.327 29.0404 142.791 28.9047C138.236 28.9047 135.342 25.7212 135.226 21.5025L135.222 21.2375C135.139 19.2021 135.909 17.2234 137.349 15.7711C138.789 14.3187 140.77 13.5221 142.823 13.5703C148.015 13.5703 150 17.5092 150 21.2691V22.2591L138.184 22.2907ZM146.996 20.0685C146.932 17.6356 145.573 15.8557 142.749 15.8557C140.341 15.8342 138.336 17.6842 138.184 20.0685H146.996Z" fill="black"/>
<path d="M11.434 26.5666C12.3897 26.5666 13.1644 27.3352 13.1644 28.2833C13.1644 29.2314 12.3897 30 11.434 30C10.4782 30 9.70348 29.2314 9.70348 28.2833C9.70348 27.3352 10.4782 26.5666 11.434 26.5666ZM21.0347 23.4344L22.7448 23.9371L21.3873 28.482C21.2687 28.8791 20.8882 29.1414 20.4717 29.1133L20.0524 29.0847L20.0421 29.0931L15.6857 28.7899L15.8069 27.0246L18.7338 27.2216L16.8177 24.4795L18.2834 23.4714L20.2021 26.2169L21.0347 23.4344ZM2.42214 20.2925L4.20125 20.4176L3.99285 23.3207L6.75197 21.4173L7.7705 22.8698L5.00778 24.7751L7.82771 25.5994L7.32366 27.2966L2.72062 25.9513C2.31876 25.8339 2.05349 25.4547 2.0831 25.0402L2.42214 20.2925ZM13.9093 17.8204L17.1202 21.6662L15.6731 22.8553L13.7621 20.5666L13.1426 24.0855L11.2915 23.7645L11.9117 20.2401L9.33902 21.7449L8.3852 20.1387L12.7088 17.6119C13.1063 17.3796 13.615 17.468 13.9093 17.8204ZM22.8929 15.2402L24.4969 14.3745L26.8336 18.6351C27.0383 19.0083 26.9539 19.4725 26.6308 19.7514L26.3002 20.0347L22.9268 22.9471L21.7284 21.5803L23.9964 19.6229L20.6183 19.0192L20.9424 17.2365L24.3181 17.8399L22.8929 15.2402ZM3.97667 10.7859L5.18497 12.144L2.94819 14.1011L6.33271 14.6873L6.01901 16.4718L2.63076 15.8852L4.08613 18.4953L2.48829 19.3721L0.114135 15.1146C-0.0931512 14.7429 -0.0121614 14.2782 0.308904 13.9971L3.97667 10.7859ZM15.417 9.38467L18.6171 13.2201L17.1695 14.4087L15.259 12.119L14.6395 15.639L12.7884 15.318L13.4065 11.8072L10.8437 13.2976L9.89349 11.6893L13.8301 9.39967L13.8339 9.38479L13.8513 9.38703L14.2181 9.17484C14.6156 8.94376 15.1233 9.03262 15.417 9.38467ZM19.5407 7.49839L20.2407 5.82527L24.7678 7.68901C25.163 7.85168 25.3913 8.26473 25.3171 8.68271L25.2417 9.09846L24.4686 13.461L22.6703 13.1467L23.1885 10.2264L20.1849 11.8732L19.3023 10.2874L22.3116 8.63927L19.5407 7.49839ZM10.9165 4.20133L10.9943 6.01116L8.00375 6.13796L10.2593 8.69504L8.88506 9.8879L6.62573 7.327L6.09935 10.2507L4.30185 9.93173L5.16329 5.15389C5.23857 4.73633 5.59591 4.42653 6.02312 4.40845L6.44631 4.38967L6.4558 4.38285L10.9165 4.20133ZM17.0339 0.341636L20.2195 4.20129L18.7656 5.38226L16.8749 3.0911L16.2371 6.60641L14.3877 6.27626L15.0265 2.75302L12.4451 4.25029L11.497 2.64079L15.8329 0.127371C16.2319 -0.103904 16.7411 -0.0130473 17.0339 0.341636Z" fill="#201D1E"/>
</svg>
