<svg width="120" height="30" viewBox="0 0 120 30" fill="none" xmlns="http://www.w3.org/2000/svg">
<path d="M115.748 4.40243C116.24 4.91145 116.82 5.16596 117.49 5.16596C118.18 5.16596 118.771 4.91145 119.263 4.40243C119.754 3.89342 120 3.29234 120 2.59922C120 1.90609 119.754 1.29961 119.263 0.779766C118.771 0.259919 118.18 0 117.49 0C116.82 0 116.24 0.259919 115.748 0.779766C115.256 1.29961 115.01 1.90609 115.01 2.59922C115.01 3.29234 115.256 3.89342 115.748 4.40243ZM62.8079 11.0482C62.8079 11.1014 62.766 11.1446 62.7145 11.1446H59.2618V17.9025C59.2618 18.4657 59.3978 18.8772 59.6698 19.1372C59.9417 19.3971 60.3392 19.5433 60.8622 19.5758C61.3155 19.604 61.8631 19.6037 62.505 19.5748L62.6623 19.5674L62.7095 19.5648C62.763 19.562 62.8079 19.606 62.8079 19.6612V23.2748C62.8079 23.3239 62.7721 23.365 62.7249 23.3704L62.6615 23.3775C59.9565 23.6761 58.0441 23.3999 56.9239 22.5487C55.7837 21.6822 55.2136 20.1335 55.2136 17.9025V11.1446H52.5769C52.5253 11.1446 52.4835 11.1014 52.4835 11.0482V7.21216C52.4835 7.15895 52.5253 7.1158 52.5769 7.1158H55.2136V4.43251C55.2136 4.3562 55.2574 4.28706 55.325 4.25622L59.1307 2.52202C59.1924 2.49389 59.2618 2.54053 59.2618 2.61017V7.1158H62.7145C62.766 7.1158 62.8079 7.15895 62.8079 7.21216V11.0482ZM70.1484 9.90975C70.525 8.87005 71.1473 8.09029 72.0156 7.57044C72.8101 7.0947 73.6879 6.83666 74.6489 6.79629L74.714 6.7942C74.7501 6.79327 74.7895 6.79253 74.824 6.79195C74.876 6.79112 74.9183 6.83441 74.9183 6.88801V11.2967C74.9183 11.3887 74.8409 11.4596 74.752 11.4513C73.5846 11.342 72.5365 11.6079 71.6076 12.249C70.6348 12.9205 70.1484 14.036 70.1484 15.5955V23.2643C70.1484 23.3175 70.1066 23.3607 70.055 23.3607H66.1936C66.1421 23.3607 66.1002 23.3175 66.1002 23.2643V7.21194C66.1002 7.15872 66.1421 7.11558 66.1936 7.11558H70.055C70.1066 7.11558 70.1484 7.15872 70.1484 7.21194V9.90975ZM84.0812 6.66045C86.278 6.66045 87.9829 7.45104 89.1964 9.03224V7.21167C89.1964 7.15845 89.2382 7.11531 89.2898 7.11531H93.1511C93.2027 7.11531 93.2445 7.15845 93.2445 7.21167V23.2642C93.2445 23.3174 93.2027 23.3604 93.1511 23.3604H89.2898C89.2382 23.3604 89.1964 23.3174 89.1964 23.2642V21.4435C87.9829 23.0247 86.278 23.8153 84.0812 23.8153C81.9891 23.8153 80.1953 22.9868 78.6994 21.3299C77.2035 19.6728 76.4557 17.6421 76.4557 15.2379C76.4557 12.8336 77.2035 10.803 78.6994 9.14595C80.1953 7.48893 81.9891 6.66045 84.0812 6.66045ZM84.8341 10.657C83.5789 10.657 82.5433 11.0847 81.7273 11.9403C80.9115 12.7959 80.5035 13.8952 80.5035 15.238C80.5035 16.5811 80.9115 17.6857 81.7273 18.552C82.5433 19.3968 83.5789 19.8192 84.8341 19.8192C86.0894 19.8192 87.1302 19.3915 87.9565 18.5359C88.7829 17.6803 89.1961 16.5811 89.1961 15.238C89.1961 13.8952 88.7829 12.7959 87.9565 11.9403C87.1302 11.0847 86.0894 10.657 84.8341 10.657ZM105.414 6.66045C107.527 6.66045 109.331 7.48893 110.827 9.14595C112.323 10.803 113.071 12.8336 113.071 15.2379C113.071 17.6421 112.323 19.6728 110.827 21.3299C109.331 22.9868 107.527 23.8153 105.414 23.8153C103.217 23.8153 101.522 23.0247 100.33 21.4435V29.7621C100.33 29.8153 100.288 29.8585 100.237 29.8585H96.3752C96.3236 29.8585 96.2818 29.8153 96.2818 29.7621V7.21167C96.2818 7.15845 96.3236 7.11531 96.3752 7.11531H100.237C100.288 7.11531 100.33 7.15845 100.33 7.21167V9.03224C101.522 7.45104 103.217 6.66045 105.414 6.66045ZM104.66 10.657C103.405 10.657 102.369 11.0847 101.554 11.9403C100.738 12.7959 100.33 13.8952 100.33 15.238C100.33 16.5811 100.738 17.6857 101.554 18.552C102.369 19.3968 103.405 19.8192 104.66 19.8192C105.916 19.8192 106.956 19.3915 107.783 18.5359C108.609 17.6803 109.022 16.5811 109.022 15.238C109.022 13.8952 108.609 12.7959 107.783 11.9403C106.956 11.0847 105.916 10.657 104.66 10.657ZM115.575 23.3608C115.523 23.3608 115.482 23.3176 115.482 23.2644V7.21203C115.482 7.15881 115.523 7.11566 115.575 7.11566H119.436C119.488 7.11566 119.53 7.15881 119.53 7.21203V23.2644C119.53 23.3176 119.488 23.3608 119.436 23.3608H115.575ZM43.3149 12.7848C42.7604 12.5141 42.4832 12.1621 42.4832 11.7289C42.4832 11.3174 42.6558 10.9925 43.001 10.7542C43.3461 10.5159 43.7803 10.3968 44.3033 10.3968C45.3062 10.3968 46.0639 10.8016 46.5761 11.6111C46.6119 11.6676 46.6814 11.6904 46.7412 11.6631L50.1566 10.0986C50.2075 10.0753 50.2275 10.0117 50.1991 9.96224L50.1283 9.83978C50.1103 9.80913 50.0931 9.78027 50.079 9.7573C49.4935 8.80449 48.7362 8.09469 47.7867 7.55392C46.7406 6.95825 45.5795 6.66042 44.3033 6.66042C42.6087 6.66042 41.1914 7.1207 40.0512 8.04126C38.911 8.96182 38.3409 10.2235 38.3409 11.8264C38.3409 12.8877 38.6182 13.7704 39.1725 14.4743C39.727 15.1783 40.4016 15.6927 41.1966 16.0176C41.9304 16.3175 42.6643 16.5712 43.3982 16.7789L43.5816 16.8299C44.3765 17.0465 45.0512 17.2902 45.6057 17.5609C46.16 17.8316 46.4372 18.1837 46.4372 18.6168C46.4372 19.5483 45.7154 20.014 44.272 20.014C42.8978 20.014 41.9456 19.4881 41.4153 18.4367C41.3698 18.3463 41.2656 18.305 41.1753 18.3464L37.7695 19.9088C37.7215 19.9308 37.7005 19.9893 37.7233 20.0382L37.7623 20.1204C38.9525 22.5836 41.1224 23.8153 44.272 23.8153C46.0712 23.8153 47.5722 23.3659 48.7751 22.4669C49.9781 21.568 50.5796 20.2847 50.5796 18.6168C50.5796 17.5122 50.3023 16.5916 49.7479 15.8551C49.1935 15.1187 48.5189 14.5934 47.7239 14.2794C46.99 13.9895 46.2561 13.7457 45.5224 13.5481L45.339 13.4996C44.5439 13.2938 43.8692 13.0556 43.3149 12.7848Z" fill="#212067"/>
<path d="M0 10.4C0 5.49739 0 3.04609 1.47603 1.52304C2.95208 0 5.32773 0 10.079 0H18.9952C23.7465 0 26.122 0 27.5981 1.52304C29.0742 3.04609 29.0742 5.49739 29.0742 10.4V19.6C29.0742 24.5026 29.0742 26.9539 27.5981 28.4769C26.122 30 23.7465 30 18.9952 30H10.079C5.32773 30 2.95208 30 1.47603 28.4769C0 26.9539 0 24.5026 0 19.6V10.4Z" fill="#4945FF"/>
<path d="M20.0612 9.09998H10.2728V14.25H15.264V19.3999H20.255V9.29999C20.255 9.18952 20.1682 9.09998 20.0612 9.09998Z" fill="white"/>
<path d="M15.3044 14.25H15.0701V14.4918H15.3044V14.25Z" fill="white"/>
<path d="M10.2728 14.25H15.07C15.1771 14.25 15.264 14.3396 15.264 14.45V19.4H10.4667C10.3596 19.4 10.2728 19.3105 10.2728 19.2V14.25Z" fill="#9593FF"/>
<path d="M15.2639 19.4H20.2549L15.4293 24.3793C15.3683 24.4422 15.2639 24.3977 15.2639 24.3086V19.4Z" fill="#9593FF"/>
<path d="M10.2728 14.25H5.51568C5.42935 14.25 5.38611 14.1423 5.44715 14.0793L10.2728 9.09998V14.25Z" fill="#9593FF"/>
</svg>
