<svg width="170" height="58" viewBox="0 0 170 58" fill="none" xmlns="http://www.w3.org/2000/svg">
<path d="M105.156 19.2936C104.481 19.0622 103.8 18.8479 103.114 18.6506C103.228 18.1886 103.333 17.7242 103.43 17.2576C104.976 9.75756 103.965 3.70856 100.514 1.71856C97.205 -0.190435 91.793 1.79956 86.327 6.55656C85.7883 7.02323 85.262 7.50623 84.748 8.00557C84.4033 7.67223 84.053 7.34856 83.697 7.03456C77.968 1.94757 72.226 -0.195435 68.778 1.80056C65.472 3.71456 64.493 9.40057 65.884 16.5086C66.0227 17.2126 66.179 17.9126 66.353 18.6086C65.541 18.8396 64.753 19.0856 64.005 19.3466C57.289 21.6876 53 25.3576 53 29.1646C53 33.0966 57.6 37.0396 64.6 39.4306C65.1673 39.6232 65.739 39.8019 66.315 39.9666C66.1277 40.7166 65.961 41.4716 65.815 42.2316C64.488 49.2196 65.524 54.7676 68.822 56.6696C72.228 58.6336 77.944 56.6146 83.51 51.7496C83.95 51.3649 84.3913 50.9582 84.834 50.5296C85.3907 51.0669 85.9623 51.5886 86.549 52.0946C91.94 56.7336 97.265 58.6076 100.56 56.7006C103.96 54.7306 105.068 48.7706 103.632 41.5186C103.523 40.9646 103.396 40.3979 103.252 39.8186C103.652 39.6999 104.045 39.5772 104.432 39.4506C111.704 37.0416 116.432 33.1506 116.432 29.1616C116.432 25.3416 112.005 21.6466 105.153 19.2886L105.156 19.2936Z" fill="#8989A2"/>
<path d="M103.578 36.8826C103.231 36.9976 102.878 37.1086 102.513 37.2156C101.626 34.4671 100.553 31.7822 99.301 29.1796C100.506 26.6111 101.537 23.9648 102.388 21.2586C103.037 21.4466 103.667 21.6446 104.274 21.8586C110.144 23.8796 113.725 26.8676 113.725 29.1696C113.725 31.6216 109.858 34.8056 103.579 36.8866L103.578 36.8826ZM100.973 42.0456C101.586 44.7942 101.688 47.6321 101.273 50.4176C100.895 52.4546 100.135 53.8116 99.196 54.3556C97.196 55.5126 92.921 54.0086 88.311 50.0416C87.7823 49.5869 87.249 49.1022 86.711 48.5876C88.6334 46.4592 90.4097 44.2034 92.028 41.8356C94.919 41.5918 97.7898 41.1494 100.62 40.5116C100.749 41.0336 100.864 41.5452 100.963 42.0466L100.973 42.0456ZM74.625 54.1586C72.672 54.8486 71.116 54.8676 70.176 54.3256C68.176 53.1716 67.343 48.7166 68.476 42.7406C68.6093 42.0346 68.7637 41.3326 68.939 40.6346C71.7574 41.2401 74.6136 41.6537 77.488 41.8726C79.1537 44.232 80.9726 46.4796 82.933 48.6006C82.539 48.9812 82.136 49.3522 81.724 49.7136C79.6501 51.6186 77.2434 53.1257 74.624 54.1596L74.625 54.1586ZM65.475 36.8706C62.7881 36.0256 60.2797 34.6934 58.075 32.9406C56.503 31.5896 55.713 30.2516 55.713 29.1656C55.713 26.8556 59.157 23.9096 64.901 21.9066C65.6217 21.6566 66.3493 21.4276 67.084 21.2196C67.9369 23.9555 68.9698 26.632 70.176 29.2316C68.9549 31.8684 67.9093 34.5829 67.046 37.3576C66.5167 37.2069 65.993 37.0436 65.475 36.8676V36.8706ZM68.542 15.9886C67.35 9.89556 68.142 5.29956 70.134 4.14656C72.256 2.91756 76.949 4.66956 81.895 9.06156C82.211 9.34256 82.529 9.63656 82.847 9.94056C80.9013 12.0479 79.0974 14.2818 77.447 16.6276C74.5999 16.8831 71.7723 17.3226 68.982 17.9436C68.82 17.2956 68.6747 16.6439 68.546 15.9886H68.542ZM95.905 22.7456C95.285 21.6742 94.642 20.6169 93.976 19.5736C96 19.8286 97.939 20.1736 99.76 20.5846C99.1756 22.4382 98.4981 24.2612 97.73 26.0466C97.144 24.9339 96.5357 23.8339 95.905 22.7466V22.7456ZM84.747 11.8766C86.0664 13.3151 87.3124 14.8193 88.48 16.3836C85.982 16.2656 83.482 16.2656 80.98 16.3836C82.212 14.7586 83.475 13.2486 84.745 11.8836L84.747 11.8766ZM73.513 22.7636C72.891 23.8429 72.294 24.9362 71.722 26.0436C70.936 24.1726 70.261 22.3326 69.713 20.5586C71.523 20.1536 73.453 19.8226 75.464 19.5716C74.7907 20.6216 74.1423 21.6882 73.519 22.7716L73.513 22.7636ZM75.513 38.9576C73.5495 38.7445 71.5983 38.4307 69.667 38.0176C70.227 36.2086 70.917 34.3296 71.723 32.4176C72.297 33.5256 72.897 34.6196 73.523 35.6996C74.161 36.8009 74.825 37.8869 75.515 38.9576H75.513ZM84.813 46.6466C83.529 45.2606 82.248 43.7276 80.996 42.0786C82.2107 42.1266 83.4477 42.1506 84.707 42.1506C86.0003 42.1506 87.2767 42.1222 88.536 42.0656C87.377 43.6553 86.1374 45.1846 84.822 46.6476L84.813 46.6466ZM97.756 32.3206C98.5621 34.1424 99.2731 36.005 99.886 37.9006C97.9323 38.3397 95.9569 38.6765 93.968 38.9096C94.6387 37.8469 95.288 36.7709 95.916 35.6816C96.554 34.5749 97.1673 33.4546 97.756 32.3206ZM93.569 34.3276C92.6083 35.9942 91.594 37.6309 90.526 39.2376C88.644 39.3716 86.699 39.4376 84.717 39.4376C82.735 39.4376 80.823 39.3766 78.974 39.2566C77.8787 37.6566 76.8453 36.0172 75.874 34.3386C74.9073 32.6719 74.0053 30.9682 73.168 29.2276C74.0027 27.4896 74.9027 25.7849 75.868 24.1136C76.8307 22.4429 77.856 20.8096 78.944 19.2136C80.831 19.0706 82.765 18.9966 84.72 18.9966C86.675 18.9966 88.62 19.0716 90.507 19.2156C91.583 20.8056 92.6017 22.4322 93.563 24.0956C94.5243 25.7589 95.436 27.4556 96.298 29.1856C95.4507 30.9289 94.542 32.6406 93.572 34.3206L93.569 34.3276ZM99.159 4.06556C101.283 5.29056 102.109 10.2306 100.775 16.7096C100.688 17.1316 100.593 17.5519 100.49 17.9706C97.6954 17.3372 94.8618 16.8895 92.008 16.6306C90.3731 14.2819 88.5817 12.0462 86.646 9.93856C87.1213 9.48056 87.6077 9.03456 88.105 8.60056C92.788 4.52456 97.165 2.91556 99.16 4.06556H99.159Z" fill="white"/>
<path d="M84.717 23.5015C85.8374 23.5015 86.9327 23.8337 87.8643 24.4562C88.7959 25.0787 89.522 25.9634 89.9508 26.9986C90.3796 28.0337 90.4917 29.1727 90.2732 30.2717C90.0546 31.3706 89.515 32.38 88.7228 33.1722C87.9305 33.9645 86.9211 34.504 85.8222 34.7226C84.7233 34.9412 83.5842 34.829 82.5491 34.4002C81.514 33.9715 80.6292 33.2454 80.0067 32.3138C79.3843 31.3822 79.052 30.2869 79.052 29.1665C79.052 27.664 79.6488 26.2231 80.7112 25.1607C81.7736 24.0983 83.2146 23.5015 84.717 23.5015" fill="#8989A2"/>
</svg>
