<svg width="170" height="58" viewBox="0 0 170 58" fill="none" xmlns="http://www.w3.org/2000/svg">
<path d="M81.486 13.7351C81.4939 13.635 81.4794 13.5345 81.4436 13.4407C81.4078 13.3469 81.3516 13.2623 81.279 13.193C81.2064 13.1237 81.1193 13.0714 81.024 13.0399C80.9287 13.0084 80.8276 12.9986 80.728 13.0111H78.058C77.812 12.9823 77.5626 13.0098 77.3287 13.0914C77.0948 13.173 76.8825 13.3067 76.7078 13.4824C76.5332 13.658 76.4006 13.871 76.3203 14.1054C76.2399 14.3397 76.2139 14.5892 76.244 14.8351V37.7041C76.2369 37.8046 76.2521 37.9054 76.2886 37.9993C76.325 38.0932 76.3818 38.1778 76.4548 38.2472C76.5278 38.3166 76.6153 38.369 76.7109 38.4006C76.8066 38.4322 76.908 38.4423 77.008 38.4301H79.672C79.9182 38.4589 80.1678 38.4315 80.4019 38.3497C80.6359 38.268 80.8483 38.1341 81.023 37.9582C81.1978 37.7823 81.3302 37.569 81.4104 37.3345C81.4906 37.0999 81.5165 36.8501 81.486 36.6041V13.7351ZM112 21.4491C112 21.0201 111.683 20.8081 111.251 20.8081H108.011C107.758 20.7793 107.503 20.8387 107.288 20.9762C107.074 21.1138 106.913 21.321 106.834 21.5631L102.266 31.7011L95.9 21.6691C95.7288 21.3647 95.469 21.1196 95.1552 20.9663C94.8414 20.8131 94.4883 20.7589 94.143 20.8111H90.293C89.9727 20.788 89.6515 20.8414 89.3559 20.967C89.0603 21.0925 88.7988 21.2866 88.593 21.5331L81.809 28.8111L87.888 37.6771C87.9956 37.8984 88.1624 38.0855 88.3701 38.2176C88.5777 38.3497 88.8179 38.4215 89.064 38.4251H92.69C93.233 38.4251 93.549 38.2071 93.549 37.7511C93.527 37.484 93.4156 37.2322 93.233 37.0361L87.889 29.1241L91.942 24.7581L99.953 36.6001L96.417 44.0811C96.3036 44.2806 96.2302 44.5004 96.201 44.7281C96.201 45.1611 96.519 45.3691 96.952 45.3691H100.167C100.42 45.3992 100.675 45.3406 100.89 45.2035C101.104 45.0664 101.264 44.8591 101.343 44.6171L111.788 22.0971C111.903 21.8984 111.976 21.6776 112 21.4491V21.4491ZM64.523 26.9041C63.458 26.6641 63.123 26.3631 63.123 25.8261C63.123 25.4081 63.454 25.0751 64.414 25.0751H72.187C72.4326 25.1052 72.6817 25.079 72.9157 24.9987C73.1497 24.9183 73.3623 24.7858 73.5376 24.6111C73.7128 24.4365 73.846 24.2243 73.9272 23.9906C74.0083 23.7568 74.0353 23.5077 74.006 23.2621V21.5691C74.0186 21.4694 74.0088 21.3682 73.9775 21.2728C73.9462 21.1773 73.8941 21.0901 73.8249 21.0172C73.7557 20.9444 73.6712 20.8879 73.5775 20.8517C73.4838 20.8155 73.3832 20.8006 73.283 20.8081H64.183C60.126 20.8111 58 23.1601 58 26.1511C58 28.8151 59.636 30.4371 62.91 31.1651L68.134 32.3341C69.196 32.5691 69.526 32.8741 69.526 33.4181C69.526 33.8301 69.197 34.1631 68.24 34.1631H60.14C59.894 34.1318 59.644 34.157 59.4092 34.2369C59.1745 34.3167 58.961 34.4491 58.7851 34.624C58.6092 34.7988 58.4755 35.0115 58.3942 35.2458C58.3129 35.4801 58.2862 35.7299 58.316 35.9761V37.6661C58.3032 37.7656 58.3126 37.8667 58.3436 37.9621C58.3745 38.0575 58.4262 38.1449 58.495 38.218C58.5637 38.291 58.6478 38.3479 58.7412 38.3846C58.8346 38.4213 58.9349 38.4368 59.035 38.4301H67.924C72.724 38.4301 74.655 36.0801 74.655 33.2971C74.655 30.4211 72.998 28.7971 69.747 28.0741L64.523 26.9041Z" fill="#8989A2"/>
</svg>
