<svg width="150" height="30" viewBox="0 0 150 30" fill="none" xmlns="http://www.w3.org/2000/svg">
<path d="M18.5488 12.0313C19.3576 12.5711 20.1823 13.081 20.9485 13.6914C21.8473 14.4869 22.5365 15.482 22.9577 16.5924C23.379 17.7029 23.52 18.8961 23.3687 20.071C23.2173 21.2459 22.7782 22.3679 22.0884 23.342C21.3987 24.3162 20.4785 25.1139 19.406 25.6675C17.532 26.5486 15.4737 26.9918 13.3939 26.962C9.16611 26.9861 4.93751 26.9619 0.70574 26.9803C0.181354 26.9803 -0.00293849 26.8672 3.53428e-05 26.3186C0.0208522 21.5355 -0.000336388 16.7524 0.0155241 11.9693C0.00118329 11.071 0.352071 10.2037 0.991314 9.55715C1.63056 8.91061 2.50651 8.53748 3.42692 8.51943C4.11288 8.42849 4.81471 8.46621 5.49176 8.32593C8.92124 8.76432 12.2905 9.57024 15.5391 10.7291C16.266 10.9909 16.9908 11.255 17.7138 11.5214C18.0463 11.5867 18.3433 11.768 18.5488 12.0313Z" fill="#00DCC0"/>
<path d="M18.5489 12.0312C16.0122 11.0403 13.4144 10.2048 10.7711 9.52936C9.06218 9.16463 7.36612 8.73799 5.6284 8.52128C5.39744 8.35778 5.02493 8.58807 4.85542 8.25527C4.13278 8.06178 3.40812 7.86827 2.68845 7.66413C1.92265 7.48497 1.24304 7.05511 0.762524 6.4462C0.282012 5.83729 0.0295519 5.0861 0.0476228 4.31773C-0.0138365 3.03005 0.0270886 1.73851 0.0151933 0.447925C0.0151933 0.187681 0.043526 0.0164165 0.383535 0.0231887C5.46185 0.119934 10.5453 -0.185756 15.6186 0.206062C16.5239 0.281455 17.4121 0.492238 18.2517 0.831032C21.3941 2.07808 22.2307 4.77339 21.8858 7.5732C21.7696 8.53368 21.4011 9.44864 20.8166 10.2296C20.232 11.0106 19.4511 11.6311 18.5489 12.0312V12.0312Z" fill="#125EEC"/>
<path d="M78.741 3.80694C79.7744 3.82665 80.7911 4.06651 81.7196 4.50968C82.6482 4.95285 83.4665 5.58868 84.117 6.37266C84.6175 7.01756 84.9692 7.76042 85.148 8.55037C85.2471 8.93155 85.1347 9.08148 84.7322 9.16371C83.8695 9.33086 83.0173 9.54472 82.179 9.80421C81.7071 9.95513 81.5743 9.80419 81.3939 9.41721C81.1706 8.95413 80.8544 8.53948 80.4641 8.19774C80.0738 7.85599 79.6172 7.59408 79.1214 7.42757C78.6256 7.26106 78.1005 7.19329 77.5774 7.22828C77.0542 7.26327 76.5434 7.40031 76.0754 7.63128C75.7676 7.77048 75.509 7.99582 75.3325 8.27863C75.156 8.56145 75.0696 8.88904 75.0842 9.21987C75.0897 9.5385 75.197 9.84746 75.391 10.1038C75.5851 10.3601 75.8565 10.5509 76.1669 10.6497C78.1495 11.5301 80.2896 11.9887 82.2404 12.9262C83.5315 13.4143 84.6112 14.3208 85.2985 15.4938C85.9266 16.818 86.0001 18.3293 85.5037 19.7058C85.0074 21.0823 83.9802 22.2154 82.6407 22.8638C81.1797 23.6528 79.513 24.0049 77.8484 23.8764C76.1838 23.7479 74.595 23.1444 73.2793 22.1411C72.5427 21.5765 71.9333 20.8696 71.4898 20.0645C71.0463 19.2594 70.7781 18.3735 70.7018 17.4625C70.6562 17.1404 70.7146 16.9537 71.0982 16.8821C72.1143 16.6886 73.1305 16.4951 74.1277 16.2271C74.5827 16.1071 74.6519 16.2794 74.7173 16.6315C74.7885 17.0539 74.898 17.4692 75.0445 17.8727C75.8544 19.9905 77.1739 20.7219 79.4559 20.3242C79.9169 20.2602 80.367 20.1348 80.7932 19.9518C81.1607 19.8193 81.4772 19.5796 81.7003 19.2653C81.9234 18.951 82.0421 18.5773 82.0401 18.1949C82.0626 17.801 81.967 17.4094 81.7647 17.0679C81.5623 16.7264 81.2622 16.45 80.9012 16.2726C79.6465 15.6176 78.3177 15.1078 76.9419 14.7537C75.6783 14.3848 74.4804 13.8285 73.3901 13.1042C70.6393 11.3715 70.7136 7.1921 73.3702 5.23108C74.6956 4.24331 76.1488 3.77308 78.741 3.80694Z" fill="#101419"/>
<path d="M124.224 10.3847C126.128 8.49716 128.234 8.00856 130.575 8.98568C131.484 9.34922 132.256 9.97815 132.785 10.7864C133.314 11.5946 133.575 12.5426 133.531 13.5008C133.588 16.6353 133.538 19.7728 133.552 22.9083C133.552 23.304 133.447 23.4355 133.034 23.422C132.18 23.393 131.322 23.3872 130.469 23.422C130.005 23.4423 129.92 23.274 129.922 22.8609C129.94 20.2314 129.932 17.6009 129.931 14.9704C129.931 14.7682 129.939 14.565 129.922 14.3647C129.769 12.6446 128.924 11.7652 127.48 11.8184C125.411 11.8948 124.407 12.7965 124.398 14.624C124.386 17.3329 124.382 20.0359 124.408 22.7419C124.408 23.2498 124.318 23.4549 123.746 23.4191C122.894 23.3678 122.035 23.3852 121.18 23.4191C120.763 23.4336 120.662 23.2924 120.663 22.9005C120.677 18.4245 120.677 13.9484 120.663 9.4723C120.663 9.08532 120.762 8.93536 121.182 8.95084C121.933 8.99267 122.686 8.99075 123.436 8.94506C124.078 8.89378 124.346 9.07565 124.229 9.71901C124.211 9.94047 124.209 10.163 124.224 10.3847V10.3847Z" fill="#101419"/>
<path d="M107.598 10.4078C108.689 8.88506 109.938 8.27939 111.612 8.6538C112.003 8.7399 112.117 8.88698 112.039 9.27493C111.876 10.0915 111.736 10.9196 111.632 11.741C111.585 12.1212 111.499 12.245 111.064 12.1821C108.982 11.8832 107.924 12.72 107.868 14.8068C107.797 17.4335 107.808 20.063 107.835 22.6906C107.841 23.303 107.655 23.4646 107.058 23.4259C106.232 23.3765 105.4 23.3997 104.572 23.42C104.235 23.4287 104.131 23.331 104.131 22.9953C104.141 18.4212 104.141 13.8468 104.131 9.27203C104.131 8.91408 104.23 8.78827 104.606 8.79988C105.382 8.826 106.162 8.84438 106.936 8.79988C107.49 8.76505 107.682 8.94016 107.605 9.46743C107.584 9.78048 107.582 10.0945 107.598 10.4078V10.4078Z" fill="#101419"/>
<path d="M51.9986 16.2618C51.9986 18.4376 51.9849 20.6154 52.0097 22.7892C52.0147 23.2633 51.9182 23.4558 51.3829 23.4258C50.5304 23.3784 49.6721 23.3949 48.8176 23.4258C48.4112 23.4384 48.2905 23.3156 48.2914 22.9141C48.3053 18.4361 48.3053 13.9584 48.2914 9.48099C48.2914 9.09401 48.3905 8.945 48.8108 8.95758C49.6921 8.9837 50.5753 8.98951 51.4545 8.95758C51.9095 8.94017 52.0093 9.09884 52.0063 9.51388C51.9885 11.7584 51.9986 14.0096 51.9986 16.2618Z" fill="#101419"/>
<path d="M117.416 16.2145C117.416 18.3903 117.4 20.568 117.428 22.7428C117.434 23.2459 117.344 23.4626 116.767 23.4258C115.94 23.3736 115.108 23.3949 114.278 23.4201C113.889 23.4317 113.742 23.3407 113.745 22.9257C113.765 18.447 113.77 13.968 113.76 9.48872C113.76 9.0495 113.903 8.93537 114.332 8.95085C115.161 8.98181 115.993 8.98761 116.821 8.95085C117.298 8.9286 117.433 9.05918 117.427 9.5313C117.4 11.7603 117.416 13.9874 117.416 16.2145Z" fill="#101419"/>
<path d="M50.1869 6.73443C48.3034 6.73443 48.3035 6.73445 48.3035 4.90694C48.3035 3.39288 48.3035 3.38799 49.8955 3.39476C50.5646 3.39476 51.4291 3.18194 51.8514 3.50507C52.3005 3.85045 51.9842 4.7328 51.9961 5.37809C52.0199 6.73252 52.0029 6.73248 50.5804 6.73248L50.1869 6.73443Z" fill="#11151A"/>
<path d="M115.655 3.39288C117.416 3.39288 117.416 3.39288 117.415 5.11881C117.415 6.73446 117.415 6.74897 115.791 6.72866C115.128 6.71995 114.246 7.0189 113.864 6.59225C113.54 6.23043 113.765 5.39163 113.765 4.76376C113.765 3.39384 113.765 3.39383 115.19 3.39383L115.655 3.39288Z" fill="#101419"/>
<path d="M4.85472 8.25525C5.10254 8.36941 5.41209 8.31719 5.62819 8.52132H3.43121C3.85945 8.19723 4.41856 8.54452 4.85472 8.25525Z" fill="#59D4DC"/>
<path d="M43.111 13.0064C43.6019 12.6794 44.0367 12.2788 44.3995 11.8194C44.865 11.1586 45.1396 10.3878 45.1947 9.58773C45.2498 8.78769 45.0833 7.98792 44.7126 7.27232C44.3546 6.43575 43.764 5.71361 43.0074 5.18755C42.2509 4.66149 41.3586 4.35252 40.4315 4.2955C37.4576 4.04493 34.4737 4.24904 31.495 4.19099C30.9825 4.18131 30.9814 4.42511 30.9824 4.7908C30.991 7.90148 30.993 11.0119 30.9877 14.1219C30.9877 17.0301 30.9892 19.9382 30.9925 22.8464C30.9925 23.0834 30.8339 23.4268 31.3444 23.4191C34.5542 23.3407 37.7757 23.661 40.9736 23.2421C42.1516 23.0996 43.2534 22.5972 44.1212 21.8067C44.9889 21.0163 45.5782 19.9782 45.8051 18.8411C46.3275 16.228 45.5089 14.4498 43.111 13.0064ZM35.4078 7.5887C36.6518 7.60805 37.8975 7.57609 39.1415 7.60512C39.441 7.5799 39.7428 7.61787 40.0259 7.71648C40.309 7.81509 40.5669 7.97202 40.7824 8.17659C40.9978 8.38116 41.1659 8.62863 41.2746 8.90212C41.3834 9.1756 41.4302 9.46871 41.4126 9.76157C41.4282 10.0535 41.3793 10.3452 41.2688 10.6169C41.1584 10.8887 40.9891 11.1339 40.7727 11.336C40.5563 11.538 40.2978 11.6921 40.0147 11.7877C39.7317 11.8833 39.4309 11.9182 39.1328 11.89C38.5381 11.9074 37.9435 11.89 37.3487 11.89C36.7004 11.89 36.0512 11.8697 35.4049 11.8977C35.0084 11.9151 34.8606 11.8184 34.8715 11.4024C34.9012 10.2898 34.9032 9.17723 34.8715 8.06369C34.8507 7.63704 35.0341 7.58189 35.4078 7.5877V7.5887ZM39.9813 19.7931C39.2101 19.8463 38.4323 19.8028 37.6561 19.8028V19.8424C36.9057 19.8424 36.1553 19.8289 35.4059 19.8483C35.0371 19.8579 34.8514 19.7989 34.8623 19.3645C34.893 18.0275 34.8841 16.6895 34.8623 15.3525C34.8623 14.9984 34.9526 14.8688 35.3342 14.8784C36.8598 14.9026 38.3875 14.8639 39.9121 14.9094C40.2172 14.9073 40.5194 14.9652 40.8013 15.0793C41.0831 15.1935 41.3389 15.3617 41.5529 15.574C41.7669 15.7862 41.9348 16.0383 42.0471 16.3151C42.1595 16.592 42.2139 16.8881 42.2069 17.1858C42.2316 18.8218 41.5158 19.6876 39.9813 19.7969V19.7931Z" fill="#101419"/>
<path d="M149.777 9.08441C149.38 8.75451 148.501 8.96735 147.834 8.96348C146.458 8.95477 146.458 8.96352 146.259 10.2367C145.973 9.95335 145.67 9.6862 145.353 9.43657C144.227 8.75425 142.902 8.45189 141.583 8.576C140.264 8.70011 139.023 9.24382 138.051 10.1235C134.958 12.9562 135.013 17.9066 136.658 20.6319C138.75 24.0954 143.535 24.9564 146.181 22.0724C146.181 22.7206 146.181 23.2914 146.181 23.8632C146.227 24.2623 146.183 24.6664 146.05 25.0466C145.917 25.4268 145.699 25.7735 145.413 26.0618C145.126 26.3501 144.778 26.5728 144.393 26.7139C144.008 26.855 143.595 26.911 143.185 26.8778C142.387 26.9061 141.6 26.696 140.928 26.2755C140.257 25.855 139.732 25.2442 139.426 24.525C138.925 24.8539 138.473 25.147 138.023 25.4441C136.522 26.4367 136.507 26.5914 137.779 27.9149C137.815 27.9516 137.854 27.9856 137.891 28.0213C138.627 28.6985 139.499 29.2194 140.452 29.5513C141.405 29.8831 142.419 30.0187 143.428 29.9495C144.285 29.9763 145.138 29.8315 145.935 29.5241C146.733 29.2167 147.457 28.7531 148.064 28.1621C148.671 27.571 149.147 26.8649 149.463 26.0873C149.78 25.3097 149.93 24.477 149.904 23.6407C149.904 19.4175 149.902 15.1929 149.899 10.9671C149.898 10.3189 150.194 9.43366 149.777 9.08441ZM146.215 14.9133C146.198 15.3419 146.215 15.7724 146.215 16.2019C146.215 16.6315 146.219 17.0611 146.215 17.4906C146.267 18.113 146.109 18.735 145.765 19.2614C145.421 19.7877 144.909 20.1893 144.308 20.4046C143.684 20.6626 142.997 20.736 142.331 20.6156C141.665 20.4952 141.05 20.1863 140.563 19.7274C138.789 18.1524 138.799 13.8733 140.769 12.457C141.274 12.0557 141.884 11.801 142.53 11.7221C143.176 11.6432 143.832 11.7434 144.422 12.011C145.004 12.2379 145.495 12.6443 145.818 13.1682C146.142 13.6922 146.281 14.305 146.215 14.9133V14.9133Z" fill="#101419"/>
<path d="M68.5426 9.39394C68.5426 8.98955 68.3646 8.94504 68.0305 8.95568C67.4605 8.97407 66.8905 8.96053 66.3195 8.96053C65.0923 8.96053 65.0931 8.96051 65.0257 10.1505C65.0257 10.1776 64.9555 10.2008 64.9149 10.2279C64.6285 9.94042 64.325 9.66969 64.0059 9.41715C61.9192 7.94178 58.5409 8.37619 56.595 10.2501C53.7342 13.0064 53.6288 17.7353 55.306 20.5835C57.4413 24.2027 62.2939 24.8935 64.8752 22.0346C64.8752 22.8754 64.9031 23.5546 64.8694 24.2298C64.8756 24.8059 64.68 25.3667 64.3152 25.8195C63.9503 26.2724 63.4376 26.59 62.8626 26.72C62.1795 26.9347 61.4484 26.9563 60.7532 26.7824C60.0581 26.6085 59.4273 26.246 58.9343 25.7371C58.5784 25.3869 58.4733 24.6381 57.9846 24.6729C57.5118 24.7087 57.0736 25.2002 56.6245 25.4981C55.1267 26.4898 55.1121 26.6591 56.3849 27.9507C56.4206 27.9874 56.4581 28.0213 56.4958 28.0571C57.3069 28.7894 58.2744 29.3374 59.3283 29.6618C60.3821 29.9861 61.4962 30.0787 62.5911 29.9329C64.1518 29.8852 65.6344 29.2552 66.7333 28.1726C67.8323 27.09 68.4638 25.6373 68.4981 24.1137C68.5982 19.2088 68.5268 14.3009 68.5426 9.39394ZM64.9095 16.1323H64.8999C64.8999 16.6624 64.9297 17.1964 64.8941 17.7237C64.8961 18.324 64.7033 18.9095 64.3432 19.3962C63.9831 19.8829 63.4742 20.2457 62.8897 20.4326C62.2867 20.6776 61.6231 20.744 60.9817 20.6236C60.3403 20.5031 59.7492 20.2012 59.2823 19.7554C57.3989 18.014 57.4274 14.1635 59.3326 12.543C59.8242 12.1046 60.4375 11.8172 61.0954 11.7169C61.7534 11.6166 62.4273 11.7078 63.0325 11.979C63.6343 12.1983 64.145 12.6053 64.4855 13.1369C64.8261 13.6685 64.9774 14.295 64.9158 14.9191C64.9 15.3235 64.9095 15.7279 64.9095 16.1323Z" fill="#101419"/>
<path d="M101.355 13.0209C101.022 11.8777 100.357 10.8529 99.4415 10.0699C98.5256 9.28682 97.3972 8.77895 96.1923 8.60743C95.263 8.42875 94.302 8.49211 93.4058 8.79119C92.5096 9.09027 91.7099 9.61451 91.0873 10.3111C91.0727 10.1143 91.0727 9.91674 91.0873 9.71996C91.2082 9.07854 90.9388 8.8899 90.2945 8.94601C89.6218 8.99817 88.9459 8.99817 88.2732 8.94601C87.7399 8.91022 87.5791 9.04952 87.5791 9.59903C87.6002 16.0268 87.6002 22.4545 87.5791 28.8823C87.5791 29.3931 87.6784 29.6089 88.2524 29.5692C88.9779 29.5071 89.7074 29.5071 90.4329 29.5692C91.1585 29.6437 91.272 29.365 91.2611 28.7314C91.2204 26.544 91.2451 24.3556 91.2451 22.1353C91.364 22.1817 91.4226 22.1866 91.4484 22.2175C93.421 24.6033 98.0321 24.3217 100.157 21.4977C101.081 20.3014 101.675 18.8947 101.885 17.4112C102.094 15.9276 101.912 14.4164 101.355 13.0209V13.0209ZM96.8336 19.8027C96.3475 20.248 95.7363 20.5413 95.0781 20.6447C94.4199 20.7482 93.7453 20.6571 93.1405 20.3833C92.5657 20.1716 92.0741 19.7881 91.7359 19.2875C91.3977 18.787 91.2297 18.195 91.2567 17.596C91.2428 17.1123 91.2567 16.6363 91.2567 16.1555C91.2567 15.7511 91.2567 15.3467 91.2567 14.9423C91.2046 14.2812 91.3796 13.622 91.7538 13.0686C92.128 12.5152 92.6802 12.0992 93.3235 11.8861C93.9892 11.6665 94.706 11.64 95.3869 11.8098C96.0678 11.9796 96.6837 12.3385 97.1598 12.8429C98.7439 14.5911 98.5981 18.2355 96.8336 19.8018V19.8027Z" fill="#101419"/>
</svg>
