<svg width="110" height="30" viewBox="0 0 110 30" fill="none" xmlns="http://www.w3.org/2000/svg">
<path d="M36.895 27.0919H40.6148V20.4294H40.8172C41.4499 21.9925 43.0187 23.0688 45.119 23.0688C48.3581 23.0688 50.5595 20.66 50.5595 15.945C50.5595 11.2044 48.3581 8.82129 45.119 8.82129C43.0187 8.82129 41.4499 9.87189 40.8172 11.4607H40.6148L40.4883 9.0775H36.895V27.0919ZM43.7273 20.0194C41.627 20.0194 40.6654 18.3538 40.6654 16.6112V15.2787C40.6654 13.5363 41.627 11.8707 43.7273 11.8707C45.5493 11.8707 46.7385 13.1519 46.7385 15.945C46.7385 18.7381 45.5493 20.0194 43.7273 20.0194ZM56.7485 23.0432C58.8488 23.0432 60.4177 21.9925 61.0503 20.4038H61.2527V22.8126H64.9725V9.0775H61.4045L61.2527 11.4607H61.0503C60.4177 9.87189 58.8488 8.82129 56.7485 8.82129C53.5095 8.82129 51.3333 11.2044 51.3333 15.945C51.3333 20.66 53.5095 23.0432 56.7485 23.0432ZM58.1656 19.9938C56.3436 19.9938 55.129 18.7125 55.129 15.945C55.129 13.1519 56.3436 11.8707 58.1656 11.8707C60.2406 11.8707 61.2021 13.5107 61.2021 15.2787V16.5856C61.2021 18.3538 60.2406 19.9938 58.1656 19.9938ZM67.144 22.8126H70.8637V15.1762C70.8637 13.4338 71.9266 11.8963 73.8497 11.8963C75.6463 11.8963 76.4055 13.0238 76.4055 15.33V22.8126H80.1253V14.51C80.1253 10.3844 78.0503 8.82129 75.3427 8.82129C73.4196 8.82129 71.7494 9.74378 71.0156 11.5632H70.8637L70.7119 9.0775H67.144V22.8126ZM86.7751 23.0432C88.8755 23.0432 90.4439 21.9925 91.0764 20.4038H91.2796L91.4055 22.8126H94.9992V4.1319H91.2796V11.4607H91.0764C90.4439 9.87189 88.8755 8.82129 86.7751 8.82129C83.5361 8.82129 81.3599 11.2044 81.3599 15.945C81.3599 20.66 83.5361 23.0432 86.7751 23.0432ZM88.1921 19.9938C86.3702 19.9938 85.1556 18.7125 85.1556 15.945C85.1556 13.1519 86.3702 11.8707 88.1921 11.8707C90.2674 11.8707 91.229 13.5107 91.229 15.2787V16.5856C91.229 18.3538 90.2674 19.9938 88.1921 19.9938ZM101.776 23.0432C103.876 23.0432 105.445 21.9925 106.078 20.4038H106.28V22.8126H110V9.0775H106.432L106.28 11.4607H106.078C105.445 9.87189 103.876 8.82129 101.776 8.82129C98.5369 8.82129 96.3608 11.2044 96.3608 15.945C96.3608 20.66 98.5369 23.0432 101.776 23.0432ZM103.193 19.9938C101.371 19.9938 100.157 18.7125 100.157 15.945C100.157 13.1519 101.371 11.8707 103.193 11.8707C105.268 11.8707 106.23 13.5107 106.23 15.2787V16.5856C106.23 18.3538 105.268 19.9938 103.193 19.9938Z" fill="black"/>
<path d="M0 3.4375C0 1.53902 1.51978 0 3.39453 0H25.9219C27.7966 0 29.3163 1.53902 29.3163 3.4375V26.5625C29.3163 28.461 27.7966 30 25.9219 30H3.39453C1.51978 30 0 28.461 0 26.5625V3.4375Z" fill="#F6E458"/>
<path d="M18.7872 6.70578C17.1698 6.23528 15.52 6.17134 13.8387 6.3236C12.8979 6.4226 11.9934 6.61172 11.1209 6.94359C9.23514 7.66092 7.81927 8.90323 6.97498 10.7738C6.3697 12.1148 6.15094 13.5393 6.12814 15.001C6.10405 16.5456 6.2952 18.0689 6.59893 19.5791C6.87424 20.948 7.24088 22.2901 7.7645 23.5857C7.81424 23.7087 7.87621 23.7503 8.00899 23.75C9.66503 23.7464 11.3212 23.7464 12.9773 23.7464C13.4675 23.7464 13.9578 23.7464 14.4481 23.7463C14.4856 23.7463 14.5231 23.7442 14.5663 23.7418C14.5883 23.7406 14.6118 23.7393 14.6376 23.7381C14.6276 23.7141 14.6188 23.6921 14.6103 23.6715C14.594 23.6309 14.5797 23.5956 14.5638 23.561C14.444 23.3015 14.3218 23.0433 14.1995 22.7849C13.9344 22.2245 13.6693 21.6642 13.4295 21.0928C12.7022 19.3602 12.1453 17.5762 11.9753 15.6879C11.9003 14.8547 11.9107 14.0262 12.1391 13.2143C12.3999 12.2862 12.9599 11.6311 13.8882 11.3572C14.7407 11.1058 15.6051 11.1074 16.4529 11.385C17.2096 11.6328 17.7029 12.1563 17.9128 12.94C18.074 13.5418 18.0739 14.1502 17.952 14.757C17.8581 15.2241 17.6691 15.6505 17.3289 15.9915C16.7186 16.6032 15.9565 16.7439 15.1387 16.697C14.9932 16.6887 14.8482 16.6726 14.6987 16.6559C14.6287 16.6482 14.5577 16.6403 14.4852 16.633C14.4873 16.6564 14.4884 16.678 14.4896 16.6982C14.4916 16.738 14.4935 16.7725 14.5016 16.8055C14.5364 16.9473 14.5697 17.0897 14.6029 17.2321C14.6829 17.5751 14.7629 17.918 14.8657 18.2538C15.0678 18.9132 15.3026 19.5568 15.5689 20.1851C17.4671 20.035 19.2154 19.5572 21.0711 18.4292C21.0989 18.4114 21.1243 18.3953 21.1496 18.3793C21.9467 17.8768 22.5918 17.225 23.0367 16.3832C23.7572 15.0201 23.8976 13.5624 23.6836 12.0578C23.4627 10.505 22.7745 9.20157 21.5899 8.17921C20.7684 7.47009 19.8183 7.0057 18.7872 6.70578Z" fill="black"/>
</svg>
